# xmcd CD database file
# Copyright (C) 1993-1998 Ti Kan
# 
# Track frame offsets:
#     150
#     22425
#     44775
#     72900
#     91390
#     116625
#     158829
#     184607
#     212925
#     227880
# 
# Disc length: 3548 seconds
# 
# Revision: 1
# Processed by: cddbd v1.4b41PL1 Copyright (c) Steve Scherf et al.
# Submitted via: DiscPlay 4.0.3
# 
DISCID=950dda0a
DTITLE=jamestown - take this as you will
DYEAR=1900
DGENRE=
TTITLE0=This is Here and now
TTITLE1=King of New Orleans
TTITLE2=Days to Days
TTITLE3=Seven
TTITLE4=So it Goes
TTITLE5=I'm not Dreaming
TTITLE6=Take This As You Will
TTITLE7=Rockets
TTITLE8=The Ferris Wheel
TTITLE9=Concerning Cameron
EXTD=
EXTT0=
EXTT1=
EXTT2=
EXTT3=
EXTT4=
EXTT5=
EXTT6=
EXTT7=
EXTT8=
EXTT9=
PLAYORDER=
